<?xml version="1.0" standalone="no"?>
<!DOCTYPE svg PUBLIC "-//W3C//DTD SVG 20010904//EN"
 "http://www.w3.org/TR/2001/REC-SVG-20010904/DTD/svg10.dtd">
<svg version="1.0" xmlns="http://www.w3.org/2000/svg"
 width="297.000000pt" height="204.000000pt" viewBox="0 0 297.000000 204.000000"
 preserveAspectRatio="xMidYMid meet">

<g transform="translate(0.000000,204.000000) scale(0.100000,-0.100000)"
fill="#000000" stroke="none">
<path d="M656 1622 c-3 -4 -84 -195 -180 -423 l-176 -414 0 -92 0 -93 190 0
190 0 0 -115 0 -115 95 0 95 0 0 115 0 115 145 0 145 0 0 90 0 90 -145 0 -145
0 0 425 0 425 -104 0 c-58 0 -107 -4 -110 -8z m24 -602 l0 -240 -100 0 c-55 0
-100 2 -100 5 0 6 180 457 187 468 2 4 6 7 9 7 2 0 4 -108 4 -240z"/>
<path d="M1220 915 l0 -315 50 0 50 0 0 315 0 315 -50 0 -50 0 0 -315z"/>
<path d="M1390 915 l0 -315 45 0 45 0 2 212 3 213 55 -213 55 -212 52 0 53 0
0 315 0 315 -45 0 -45 0 -1 -187 -1 -188 -37 145 c-21 80 -43 164 -50 188
l-12 42 -59 0 -60 0 0 -315z"/>
<path d="M1770 915 l0 -315 50 0 50 0 0 140 0 140 50 0 50 0 0 -140 0 -140 50
0 50 0 0 315 0 315 -50 0 -50 0 0 -130 0 -130 -50 0 -50 0 0 130 0 130 -50 0
-50 0 0 -315z"/>
<path d="M2176 938 c-26 -161 -50 -303 -53 -315 -5 -21 -2 -23 40 -23 50 0 50
1 62 78 l7 42 54 0 c60 0 59 1 69 -72 l6 -48 51 0 c47 0 50 1 45 23 -3 12 -26
154 -52 315 l-48 292 -67 0 -67 0 -47 -292z m133 24 c12 -79 21 -145 21 -148
0 -2 -21 -4 -46 -4 -38 0 -45 3 -40 18 2 9 13 77 22 149 10 73 19 132 20 130
1 -1 12 -66 23 -145z"/>
</g>
</svg>
